<svg xmlns="http://www.w3.org/2000/svg" width="421" height="435" fill="none"><path fill="#F9EDD6" stroke="#DFC298" stroke-miterlimit="10" stroke-width=".75" d="M210.22 434.422c115.823 0 209.716-97.114 209.716-216.91C419.936 97.716 326.043.602 210.22.602 94.397.602.504 97.716.504 217.512c0 119.796 93.893 216.91 209.716 216.91Z"/><path fill="#F9EDD6" stroke="#DFC298" stroke-miterlimit="10" stroke-width=".75" d="M207.91 404.178c98.397 0 178.163-82.503 178.163-184.274 0-101.772-79.766-184.274-178.163-184.274-98.396 0-178.162 82.502-178.162 184.274 0 101.771 79.766 184.274 178.162 184.274Z"/><path fill="#F9EDD6" stroke="#DFC298" stroke-miterlimit="10" stroke-width=".75" d="M207.913 371.538c80.97 0 146.609-67.89 146.609-151.638 0-83.747-65.639-151.638-146.609-151.638-80.969 0-146.608 67.891-146.608 151.638 0 83.748 65.639 151.638 146.608 151.638Z"/><path fill="#F9EDD6" stroke="#DFC298" stroke-miterlimit="10" stroke-width=".75" d="M280.047 306.369c46.19-41.195 51.348-113.318 11.519-161.093-39.828-47.774-109.56-53.108-155.75-11.914-46.19 41.195-51.347 113.319-11.519 161.093 39.829 47.775 109.56 53.109 155.75 11.914Z"/><path fill="#F9EDD6" stroke="#DFC298" stroke-miterlimit="10" stroke-width=".75" d="M261.144 280.15c32.2-30.353 34.513-81.958 5.167-115.262-29.346-33.305-79.24-35.697-111.439-5.344-32.2 30.353-34.514 81.957-5.167 115.262 29.346 33.304 79.239 35.697 111.439 5.344Z"/><path fill="#F9EDD6" stroke="#DFC298" stroke-miterlimit="10" stroke-width=".75" d="M207.914 264.079c23.59 0 42.713-19.779 42.713-44.178 0-24.398-19.123-44.178-42.713-44.178s-42.713 19.78-42.713 44.178c0 24.399 19.123 44.178 42.713 44.178Z"/></svg>