<svg fill="none" xmlns="http://www.w3.org/2000/svg" viewBox="0 0 21 20"><path d="M19.6763 10.1489c0 5.0833-4.1103 9.2013-9.1772 9.2013-5.06695 0-9.17723-4.118-9.17723-9.2013 0-5.08323 4.11028-9.201293 9.17723-9.201293 5.0669 0 9.1772 4.118063 9.1772 9.201293Z" stroke="currentColor" stroke-width="1.3"/><path d="M6.13241 2.23867c.01672-.01584.15814-.11818.6583-.0221.46975.09024 1.09659.32994 1.84676.72944 1.49193.7945 3.33703 2.14813 5.16413 3.87931 1.8272 1.73118 3.2559 3.47928 4.0945 4.89288.4216.7107.6746 1.3046.7699 1.7497.1014.4739-.0066.6079-.0234.6237-.0167.0159-.1581.1182-.6583.0221-.4697-.0902-1.0965-.3299-1.8467-.7294-1.492-.7945-3.337-2.1481-5.1642-3.87933-1.82718-1.73118-3.25587-3.47929-4.09443-4.89285-.42165-.71076-.67464-1.30467-.76989-1.74974-.10141-.47388.00661-.60787.02333-.62371Z" stroke="currentColor" stroke-width="1.3"/><path d="M15.2232 2.2341c.0109.0103.1218.14177.011.62954-.1034.45509-.3693 1.06257-.8074 1.7895-.8711 1.44573-2.3451 3.23709-4.2222 5.01552C8.32759 11.4471 6.4369 12.8437 4.911 13.669c-.76724.415-1.40841.667-1.88873.765-.51482.105-.65359-.0001-.66445-.0104-.01087-.0103-.1218-.1418-.01101-.6296.10338-.4551.36935-1.0625.80737-1.7895.87115-1.4457 2.34517-3.23706 4.22221-5.01549 1.87705-1.77843 3.76771-3.175 5.29361-4.00038.7673-.41502 1.4084-.66701 1.8888-.76495.5148-.10498.6535.00012.6644.01042Z" stroke="currentColor" stroke-width="1.3"/></svg>