<svg xmlns="http://www.w3.org/2000/svg" width="20" height="20" fill="none"><path fill="#506DFF" fill-rule="evenodd" d="M4.5 1.667h11a2 2 0 0 1 2 2v11.821a2 2 0 0 1-2.677 1.882l-.729-.262a2 2 0 0 0-1.498.058l-1.775.798a2 2 0 0 1-1.642 0l-1.775-.798a2 2 0 0 0-1.498-.058l-.729.262A2 2 0 0 1 2.5 15.488V3.667a2 2 0 0 1 2-2Zm9.667 4.917a.75.75 0 0 0 0-1.5H5.833a.75.75 0 0 0 0 1.5h8.334Zm.75 2.583a.75.75 0 0 1-.75.75H5.833a.75.75 0 1 1 0-1.5h8.334a.75.75 0 0 1 .75.75ZM10 13.25a.75.75 0 0 0 0-1.5H5.833a.75.75 0 0 0 0 1.5H10Z" clip-rule="evenodd"/></svg>