<svg fill="none" xmlns="http://www.w3.org/2000/svg" viewBox="0 0 48 48"><path d="M44.64 24c1.8557 0 3.3842-1.5117 3.1253-3.3492-.7134-5.0622-3.0309-9.7969-6.6572-13.48272C36.6914 2.67895 30.6873.105656 24.3905.00317783 18.0938-.0993006 12.0091 2.27725 7.44871 6.62028 2.8883 10.9633.21764 16.9248.0127105 23.219-.192219 29.5132 2.085 35.6358 6.35325 40.2663s10.18545 7.3978 16.47555 7.7051c6.29.3073 12.4489-1.87 17.1482-6.0623 3.8583-3.4421 6.4789-8.0161 7.5201-13.0211.3779-1.8168-1.0491-3.4247-2.9008-3.5454-1.8518-.1207-3.4187 1.2986-3.895 3.0921-.8615 3.2444-2.6569 6.193-5.1979 8.4599-3.3835 3.0184-7.8178 4.5861-12.3467 4.3648-4.5288-.2213-8.7892-2.2137-11.8624-5.5477-3.0731-3.3339-4.7127-7.7422-4.56515-12.274.14755-4.5318 2.07043-8.8241 5.35395-11.9511 3.2835-3.12698 7.6645-4.8381 12.1981-4.76431 4.5336.07378 8.8566 1.92656 12.0366 5.15871 2.3882 2.4273 3.988 5.4865 4.6366 8.78C41.313 22.4817 42.7843 24 44.64 24Z" fill="url(#a)"/><defs><radialGradient id="a" cx="0" cy="0" r="1" gradientUnits="userSpaceOnUse" gradientTransform="matrix(25 0 0 25 24 24)"><stop stop-color="#657080"/><stop offset="1" stop-color="#657080" stop-opacity="0"/></radialGradient></defs></svg>