<svg fill="none" xmlns="http://www.w3.org/2000/svg" viewBox="0 0 26 26"><g clip-path="url(#a)"><path d="m18.0275 10.3521-3.759 3.759c-.6994.6994-1.8394.6994-2.5388 0l-3.759-3.7559M13 18.122v-1.9072c0-.533.2126-1.0445.5885-1.4204l4.4091-4.4091m-5.0293 7.7378v-1.9072c0-.533-.2126-1.0445-.5885-1.4204l-4.4091-4.4121" stroke="#fff" stroke-width="2" stroke-miterlimit="10" stroke-linecap="round"/><path d="M13.0008 10.5432c1.1946 0 2.163-.96834 2.163-2.16289 0-1.19456-.9684-2.16293-2.163-2.16293-1.1945 0-2.1629.96837-2.1629 2.16293 0 1.19455.9684 2.16289 2.1629 2.16289Z" fill="currentColor"/></g><path d="M7.78261 1h-2.6087C2.86873 1 1 2.86873 1 5.17391v2.6087M18.2174 25h2.6087C23.1313 25 25 23.1313 25 20.8261v-2.6087m0-10.43479v-2.6087C25 2.86873 23.1313 1 20.8261 1h-2.6087M1 18.2174v2.6087C1 23.1313 2.86873 25 5.17391 25h2.6087" stroke="#fff" stroke-width="2" stroke-linecap="round"/><defs><clipPath id="a"><path fill="currentColor" d="M6.73828 6.21738h12.5217v13.1378H6.73828z"/></clipPath></defs></svg>