<svg fill="none" xmlns="http://www.w3.org/2000/svg" viewBox="0 0 88 14"><path fill-rule="evenodd" clip-rule="evenodd" d="M7.137 5.152a.281.281 0 0 1-.159.074.292.292 0 0 1-.193-.082c-.74-.903-1.276-4.64.334-5.022 1.77-.396 2.5 1.92 2.853 3.041l.069.215a4.948 4.948 0 0 0-2.623-.586 48.179 48.179 0 0 0-.21 2.222.268.268 0 0 1-.071.138Zm1.786.383a.192.192 0 0 1-.053-.09.211.211 0 0 1 0-.105c.282-1.1 2.843-4.013 4.418-2.914 1.477 1.03-.033 3.034-.75 3.985l-.13.174a4.49 4.49 0 0 0-1.153-2.263c-.653.38-1.257.764-1.7 1.045l-.315.2-.011.007a.273.273 0 0 1-.043.02l-.007.001a.287.287 0 0 1-.106.013.357.357 0 0 1-.026-.006L9.036 5.6a.284.284 0 0 1-.112-.065Zm21.19 1.652c0-2.547 1.215-4.135 3.6-4.135 2.384 0 3.572 1.588 3.572 4.135 0 2.548-1.205 4.119-3.572 4.119s-3.6-1.571-3.6-4.119Zm1.479 0c0 .993.246 2.84 2.12 2.84 1.875 0 2.104-1.839 2.104-2.84 0-1-.247-2.865-2.103-2.865-1.857 0-2.121 1.872-2.121 2.865Zm-6.873-3.972 1.698 5.69 1.558-5.69h1.46l-2.19 7.928h-1.426l-1.857-5.462-1.874 5.462h-1.434l-2.192-7.928h1.47l1.558 5.69 1.698-5.69h1.531ZM44.933 5.52c0-1.702-1.144-2.304-3.212-2.304h-3.019v7.928h1.479v-3.24h1.47l1.662 3.24h1.637l-1.725-3.402c1.11-.277 1.708-.96 1.708-2.222ZM41.65 6.634h-1.47V4.5h1.47c1.215 0 1.84.301 1.84 1.066 0 .766-.59 1.067-1.84 1.067Zm4.858-3.419h1.47v6.618h4.224v1.31h-5.694V3.215Zm9.521 0h-2.437v7.928h2.438c2.57 0 4.206-1.506 4.206-3.94 0-2.433-1.637-3.988-4.206-3.988Zm.115 6.618h-1.065V4.517h1.065c1.566 0 2.631 1.132 2.631 2.687 0 1.554-1.012 2.629-2.631 2.629ZM67.346 5.86c-.29-.748-.695-1.473-2.085-1.473-1.4 0-2.297 1.164-2.297 2.768 0 1.603.854 2.808 2.297 2.808s1.91-.798 2.103-1.506l1.355.415c-.387 1.514-1.716 2.401-3.458 2.401-2.297 0-3.784-1.668-3.784-4.118s1.487-4.07 3.784-4.07c1.636 0 3.018.83 3.458 2.369l-1.373.406Zm5.87-2.808c-2.385 0-3.608 1.588-3.608 4.135 0 2.548 1.24 4.119 3.608 4.119 2.367 0 3.573-1.571 3.573-4.119 0-2.547-1.188-4.135-3.573-4.135Zm0 6.976c-1.874 0-2.12-1.848-2.12-2.84 0-.994.263-2.866 2.12-2.866 1.857 0 2.103 1.864 2.103 2.865 0 1.001-.229 2.84-2.103 2.84Zm5.122-6.813h1.487v7.927h-1.487V3.215Zm8.175 0v5.348l-3.318-5.348h-1.47v7.928h1.47V5.974l3.318 5.17H88V3.214h-1.487Zm-76.49 3.777-.097.065-.052.098a.24.24 0 0 0-.002.022v.013a.256.256 0 0 0 .037.12.25.25 0 0 0 .15.089l.257.073.014.005c.52.148 1.264.36 2.025.606a4.237 4.237 0 0 1-1.188 2.222l.206-.011c1.24-.065 3.91-.205 3.86-1.918-.053-1.53-4.119-1.864-5.21-1.384Zm-.741 1.846a.194.194 0 0 1 .046.018c1.1.488 3.608 3.483 2.086 4.64-1.434 1.088-3.202-.746-4.029-1.603l-.143-.148a5.153 5.153 0 0 0 2.614-.52c-.3-.811-.617-1.557-.814-2.02l-.002-.004-.029-.068a.205.205 0 0 1-.009-.163l.005-.012.005-.008.006-.01a.218.218 0 0 1 .099-.084.254.254 0 0 1 .165-.018Zm-1.952.669a.19.19 0 0 0-.052-.09.155.155 0 0 0-.088-.056.237.237 0 0 0-.168 0 .226.226 0 0 0-.132.097 63.83 63.83 0 0 1-1.232 1.913A4.586 4.586 0 0 1 3.59 9.8l-.023.12-.009.047c-.218 1.13-.69 3.579 1.141 3.934 1.628.293 2.878-3.304 2.631-4.395ZM5.588 8.384a.312.312 0 0 1-.053.09c-.783.87-4.602 2.197-5.36.838C-.66 7.77 1.713 6.568 2.794 6.02l.155-.078a4.192 4.192 0 0 0-.035 2.482c.959-.097 1.857-.228 2.402-.309a.28.28 0 0 1 .167.04c.051.028.089.071.106.123a.212.212 0 0 1 0 .106ZM5.28 6.528a.179.179 0 0 0 .194-.098.181.181 0 0 0 .044-.147.238.238 0 0 0-.08-.146 39.081 39.081 0 0 1-1.724-1.53 4.572 4.572 0 0 1 2.12-1.522l-.155-.06c-1.139-.448-3.648-1.435-4.42.141-.678 1.408 2.807 3.346 4.02 3.362Z" fill="currentColor"/></svg>